<?xml version="1.0" encoding="utf-8"?>
<!-- Generator: Adobe Illustrator 13.0.0, SVG Export Plug-In . SVG Version: 6.00 Build 14948)  -->
<!DOCTYPE svg PUBLIC "-//W3C//DTD SVG 1.1//EN" "http://www.w3.org/Graphics/SVG/1.1/DTD/svg11.dtd">
<svg version="1.1" id="Calque_1" xmlns="http://www.w3.org/2000/svg" xmlns:xlink="http://www.w3.org/1999/xlink" x="0px" y="0px"
	 width="640px" height="480px" viewBox="0 0 640 480" enable-background="new 0 0 640 480" xml:space="preserve">
<line fill="#999999" stroke="#1A171B" stroke-width="0.25" x1="86.5" y1="-36.5" x2="86.5" y2="517.5"/>
<line fill="#999999" stroke="#1A171B" stroke-width="0.25" x1="-24.5" y1="117.5" x2="734.5" y2="117.5"/>
<line fill="#999999" stroke="#1A171B" stroke-width="0.25" x1="-30.5" y1="38.5" x2="728.5" y2="38.5"/>
<line fill="#999999" stroke="#1A171B" stroke-width="0.25" x1="-23.5" y1="186.5" x2="735.5" y2="186.5"/>
<line fill="#999999" stroke="#1A171B" stroke-width="0.25" x1="-23.5" y1="256.5" x2="735.5" y2="256.5"/>
<line fill="#999999" stroke="#1A171B" stroke-width="0.25" x1="-24.5" y1="315.5" x2="734.5" y2="315.5"/>
<line fill="#999999" stroke="#1A171B" stroke-width="0.25" x1="-34.5" y1="373.5" x2="724.5" y2="373.5"/>
<line fill="#999999" stroke="#1A171B" stroke-width="0.25" x1="-41.5" y1="450.5" x2="717.5" y2="450.5"/>
<line fill="#999999" stroke="#1A171B" stroke-width="0.25" x1="165.5" y1="-37.5" x2="165.5" y2="516.5"/>
<line fill="#999999" stroke="#1A171B" stroke-width="0.25" x1="248.5" y1="-43.5" x2="248.5" y2="510.5"/>
<line fill="#999999" stroke="#1A171B" stroke-width="0.25" x1="327.5" y1="-44.5" x2="327.5" y2="509.5"/>
<line fill="#999999" stroke="#1A171B" stroke-width="0.25" x1="393.5" y1="-41.5" x2="393.5" y2="512.5"/>
<line fill="#999999" stroke="#1A171B" stroke-width="0.25" x1="472.5" y1="-42.5" x2="472.5" y2="511.5"/>
<line fill="#999999" stroke="#1A171B" stroke-width="0.25" x1="553.5" y1="-39.5" x2="553.5" y2="514.5"/>
<line fill="#999999" stroke="#1A171B" stroke-width="0.25" x1="632.5" y1="-40.5" x2="632.5" y2="513.5"/>
<line fill="#999999" stroke="#1A171B" stroke-width="0.25" x1="-241.409" y1="-76.997" x2="-241.409" y2="477.003"/>
<line fill="#999999" stroke="#1A171B" stroke-width="0.25" x1="-241.409" y1="-76.997" x2="-241.409" y2="477.003"/>
</svg>
